<svg width="87" height="87" viewBox="0 0 87 87" fill="none" xmlns="http://www.w3.org/2000/svg">
<path d="M83.2055 27.859C82.6923 26.6148 82.1135 25.396 81.469 24.2026C81.105 23.5253 80.7202 22.857 80.3144 22.1977C78.563 19.3603 76.4283 16.6811 73.9102 14.16C65.6606 5.91043 55.7015 1.78566 44.0328 1.78566C32.3671 1.78566 22.4095 5.91043 14.16 14.16C5.91044 22.4095 1.78568 32.3671 1.78568 44.0328C1.78568 55.7015 5.91044 65.6606 14.16 73.9102C22.4095 82.1567 32.3671 86.28 44.0328 86.28C55.7015 86.28 65.6606 82.1567 73.9102 73.9102C78.4541 69.3632 81.7465 64.2986 83.7872 58.7164C85.4491 54.1665 86.28 49.272 86.28 44.0328C86.28 40.014 85.7907 36.1965 84.8121 32.5804C84.7017 32.1717 84.5854 31.7659 84.463 31.3632C84.0961 30.1727 83.6769 29.0047 83.2055 27.859Z" fill="black" fill-opacity="0.098039"/>
<path d="M83.2144 31.5064C83.11 31.0976 83.0011 30.6919 82.8877 30.2891C82.7967 29.9737 82.7013 29.6589 82.6013 29.3448C82.4538 28.8706 82.2972 28.3992 82.1314 27.9306C81.5496 26.2866 80.8589 24.686 80.0593 23.1285C79.7132 22.4513 79.3462 21.783 78.9584 21.1236C77.1294 18.0207 74.8515 15.1043 72.1245 12.3743C65.6204 5.87015 58.0526 1.93036 49.4211 0.554942C47.9592 0.322224 46.4659 0.162604 44.9413 0.0760806C44.0522 0.0253601 43.1542 0 42.2472 0C41.4058 0 40.5734 0.0223767 39.7499 0.06713C29.1553 0.616105 20.0301 4.7185 12.3743 12.3743C4.12477 20.6238 0 30.5815 0 42.2472C0 53.9159 4.12477 63.875 12.3743 72.1245C17.4338 77.1821 23.1354 80.6892 29.479 82.646C32.7334 83.6493 36.157 84.2445 39.7499 84.4317C39.7619 84.4317 39.7738 84.4317 39.7857 84.4317C40.5107 84.4675 41.2417 84.4884 41.9786 84.4943C42.0682 84.4943 42.1577 84.4943 42.2472 84.4943C43.1572 84.4943 44.0552 84.4705 44.9413 84.4227C45.1502 84.4108 45.3575 84.3974 45.5634 84.3825C47.3565 84.2542 49.1079 84.0244 50.8174 83.6933C51.5216 83.556 52.2197 83.4024 52.9119 83.2323C60.1082 81.4392 66.5124 77.7366 72.1245 72.1245C76.4745 67.7715 79.6774 62.9441 81.7331 57.6423C83.3889 53.3699 84.3004 48.7901 84.4675 43.903C84.4854 43.3541 84.4943 42.8021 84.4943 42.2472C84.4943 42.1875 84.4943 42.1278 84.4943 42.0682C84.4943 42.0383 84.4943 42.0085 84.4943 41.9786C84.4735 38.3208 84.0468 34.83 83.2144 31.5064Z" fill="#4000BF"/>
<path d="M81.7331 57.6423C83.3038 53.5896 84.2048 49.2604 84.4362 44.6549L63.0217 23.2404L22.3051 62.2385L44.5117 84.4451C44.6549 84.4379 44.7981 84.4305 44.9413 84.4227C45.1502 84.4108 45.3575 84.3974 45.5634 84.3825C47.3565 84.2542 49.1079 84.0244 50.8174 83.6933C51.5216 83.556 52.2197 83.4024 52.9119 83.2323C60.1082 81.4392 66.5124 77.7366 72.1245 72.1245C76.4745 67.7715 79.6774 62.9441 81.7331 57.6423Z" fill="black" fill-opacity="0.2"/>
<path d="M70.5134 42.2472C70.5134 42.1919 70.5134 42.1367 70.5134 42.0816C70.4743 34.3479 67.7145 27.7408 62.234 22.2603C56.7144 16.7407 50.0522 13.9809 42.2472 13.9809C34.4422 13.9809 27.7799 16.7407 22.2603 22.2603C16.7798 27.7408 14.02 34.3479 13.981 42.0816C13.981 42.1367 13.981 42.1919 13.981 42.2472C13.981 50.0521 16.7407 56.7144 22.2603 62.234C27.7799 67.7536 34.4422 70.5134 42.2472 70.5134C50.0522 70.5134 56.7144 67.7536 62.234 62.234C67.7536 56.7144 70.5134 50.0521 70.5134 42.2472Z" fill="white"/>
<path d="M63.1559 49.0676C63.2876 48.6552 63.4054 48.2375 63.5095 47.8145H20.9804C21.0874 48.2375 21.2068 48.6552 21.3384 49.0676C21.967 51.0377 22.8859 52.8875 24.0952 54.617H60.3991C61.6084 52.8875 62.5273 51.0377 63.1559 49.0676Z" fill="#4D00C7"/>
<path d="M57.7542 57.7542C58.7518 56.7566 59.6335 55.7109 60.3991 54.617H24.0952C24.8609 55.7109 25.7425 56.7566 26.7401 57.7542C31.0245 62.0386 36.1935 64.1808 42.2472 64.1808C48.3038 64.1808 53.4728 62.0386 57.7542 57.7542Z" fill="#3800A9"/>
<path d="M64.1763 42.2516C64.1763 42.1949 64.1763 42.1382 64.1763 42.0816C64.171 41.2907 64.1292 40.5149 64.051 39.7544H35.2075C33.7964 40.372 32.2569 40.6808 30.5889 40.6808C28.9209 40.6808 27.3814 40.372 25.9704 39.7544H20.4433C20.3652 40.5149 20.3234 41.2907 20.318 42.0816C20.318 42.1382 20.318 42.1949 20.318 42.2516C20.318 44.1975 20.5388 46.0518 20.9804 47.8145H63.5095C63.954 46.0518 64.1763 44.1975 64.1763 42.2516Z" fill="#5F00D2"/>
<path d="M22.4393 37.3064C21.9806 36.8477 21.5689 36.3688 21.2041 35.8698C20.8366 37.1181 20.583 38.4129 20.4433 39.7544H25.9704C24.6873 39.1933 23.5102 38.3773 22.4393 37.3064ZM64.051 39.7544C63.5338 34.7619 61.4349 30.4252 57.7542 26.7446C53.4728 22.4632 48.3038 20.3225 42.2472 20.3225C40.9059 20.3225 39.6081 20.4269 38.3536 20.6358C38.4835 20.7567 38.6118 20.8805 38.7385 21.0072C40.9881 23.2568 42.1129 25.9734 42.1129 29.1568C42.1129 32.3403 40.9881 35.0568 38.7385 37.3064C37.6676 38.3773 36.4906 39.1933 35.2075 39.7544H64.051Z" fill="#6D00DE"/>
</svg>
