<svg width="87" height="86" viewBox="0 0 87 86" fill="none" xmlns="http://www.w3.org/2000/svg">
<path d="M84.4739 0H27.5912V28.5206H55.5802C56.5774 28.5206 57.3863 29.3295 57.3863 30.3267V57.9294H86.28V1.80936C86.2809 1.32979 86.091 0.869567 85.7522 0.53015C85.4134 0.190733 84.9535 0 84.4739 0Z" fill="#8E75FF"/>
<path opacity="0.405" d="M27.5879 0V28.5206H0.903105C0.53642 28.5199 0.206393 28.298 0.0674694 27.9587C-0.0714546 27.6193 0.00820411 27.2297 0.269168 26.9721L27.5879 0ZM58.9249 84.9311C58.6651 85.1863 58.2777 85.2608 57.9418 85.1203C57.6058 84.9797 57.3869 84.6514 57.3863 84.2873V57.9294H86.28L58.9249 84.9278V84.9311Z" fill="#8E75FF"/>
<path opacity="0.405" d="M27.5879 28.5206H56.4849C56.9802 28.5206 57.3863 28.9234 57.3863 29.422V57.9294H29.3973C28.3998 57.9294 27.5912 57.1208 27.5912 56.1233V28.5206H27.5879Z" fill="#8E75FF"/>
</svg>
