<svg width="87" height="52" viewBox="0 0 87 52" fill="none" xmlns="http://www.w3.org/2000/svg">
<path d="M43.14 0C31.636 0 24.446 5.752 21.57 17.256C25.884 11.504 30.917 9.347 36.669 10.785C39.9508 11.6055 42.2965 13.9863 44.8929 16.6218C49.1226 20.9151 54.0178 25.884 64.71 25.884C76.214 25.884 83.404 20.132 86.28 8.628C81.966 14.38 76.933 16.537 71.181 15.099C67.8992 14.2785 65.5535 11.8977 62.9571 9.26216C58.7274 4.96893 53.8322 0 43.14 0ZM21.57 25.884C10.066 25.884 2.876 31.636 0 43.14C4.314 37.388 9.347 35.231 15.099 36.669C18.3808 37.4895 20.7265 39.8703 23.3229 42.5058C27.5526 46.7991 32.4478 51.768 43.14 51.768C54.644 51.768 61.834 46.016 64.71 34.512C60.396 40.264 55.363 42.421 49.611 40.983C46.3292 40.1625 43.9835 37.7817 41.3871 35.1462C37.1574 30.8529 32.2622 25.884 21.57 25.884Z" fill="url(#paint0_linear_1_7)"/>
<defs>
<linearGradient id="paint0_linear_1_7" x1="-613.547" y1="2551.13" x2="20527.5" y2="9883.84" gradientUnits="userSpaceOnUse">
<stop stop-color="#2298BD"/>
<stop offset="1" stop-color="#0ED7B5"/>
</linearGradient>
</defs>
</svg>
